# xmcd
#
# Track frame offsets: 
#        150
#        15907
#        35090
#        49772
#        65442
#        77500
#        91047
#        104435
#        124222
#        140820
#        162647
#        183945
#
# Disc length: 2688 seconds
#
# Revision: 7
# Processed by: cddbd v1.5.2PL0 Copyright (c) Steve Scherf et al.
# Submitted via: ExactAudioCopy v0.99pb5
#
DISCID=9c0a7e0c
DTITLE=Bio Ritmo - Rumba baby Rumba
DYEAR=1999
DGENRE=Salsa
TTITLE0=Yo Soy La Rumba
TTITLE1=Call Me Up
TTITLE2=Bin Bin
TTITLE3=What I Want To Say
TTITLE4=You Killed My Love
TTITLE5=Tequila
TTITLE6=Ugly
TTITLE7=Un Carnaval En La Habana
TTITLE8=You Rule Over Me
TTITLE9=Una Palabra
TTITLE10=Siéntate Ahi
TTITLE11=Night Music
EXTD=
EXTT0=
EXTT1=
EXTT2=
EXTT3=
EXTT4=
EXTT5=
EXTT6=
EXTT7=
EXTT8=
EXTT9=
EXTT10=
EXTT11=
PLAYORDER=
